<?xml version="1.0" encoding="utf-8"?>
<!-- Generator: Adobe Illustrator 20.0.0, SVG Export Plug-In . SVG Version: 6.00 Build 0)  -->
<svg version="1.1" xmlns="http://www.w3.org/2000/svg" xmlns:xlink="http://www.w3.org/1999/xlink" x="0px" y="0px"
	 viewBox="0 0 112 36" style="enable-background:new 0 0 112 36;" xml:space="preserve">
<style type="text/css">
	.st0{display:none;}
	.st1{display:inline;fill:#FFFFFF;}
	.st2{display:inline;}
	.st3{fill:#FFFFFF;}
</style>
<g id="Calque_1" class="st0">
	<rect class="st1" width="112" height="36"/>
	<g class="st2">
		<path d="M68.3,10.5c-5.8,0-10.7,4.2-10.7,10.8s5,10.8,10.7,10.8c5.7,0,10.7-4.2,10.7-10.8S74.1,10.5,68.3,10.5z M68.3,27.4
			c-2.9,0-5-2.3-5-6s2.2-6,5-6c2.9,0,5.1,2.3,5.1,6S71.2,27.4,68.3,27.4z"/>
		<path d="M104.9,10.5c-2.9,0-4.7,1.9-5.6,3.7c-1.1-2.4-2.7-3.7-5.4-3.7c-3,0-4.7,1.9-5.6,3.7V11h-5v20.8h5.4V18.3
			c0.2-1.7,1.4-2.8,3-2.8c1.4,0,2.7,0.9,2.8,3v13.3h5.3V18.3c0.2-1.7,1.4-2.8,3-2.8c1.5,0,2.8,1,2.8,3.3v13h5.4V17.7
			C111,12.2,107.8,10.5,104.9,10.5z"/>
		<path d="M11.6,15c2.5,0,4.4,1.8,4.9,4.8l4.6-4.6c-1.6-3.2-4.6-5-8.2-5c-3,0-5.1,1.4-6.5,3.3v-11H0.8v29.3H6v-3
			c1.1,1.6,3.5,3.5,6.7,3.5c3.4,0,6.6-1.8,8.4-5l-4.5-4.5c-0.5,2.9-2.3,4.7-4.9,4.7c-3.1,0-5.2-2.3-5.2-6.2C6.4,17.3,8.7,15,11.6,15
			z"/>
		<path d="M43.4,22.2l-4.5,4.5c1.8,3.5,5.5,5.5,10,5.5c2.1,0,4.5-0.5,6.2-1.4v-4.7c-1.6,0.8-3.3,1.3-5.6,1.3
			C46,27.4,43.7,25.2,43.4,22.2z"/>
		<path d="M49.5,15.4c1.9,0,3.8,0.6,5.6,1.5v-5.1c-1.7-0.7-4-1.3-6.2-1.3c-4.4,0-8.1,2.2-9.9,5.8l4.5,4.5
			C43.6,17.7,45.7,15.4,49.5,15.4z"/>
	</g>
</g>
<g id="Calque_2">
	<rect width="112" height="36"/>
	<g>
		<path class="st3" d="M68.3,10.5c-5.8,0-10.7,4.2-10.7,10.8s5,10.8,10.7,10.8c5.7,0,10.7-4.2,10.7-10.8S74.1,10.5,68.3,10.5z
			 M68.3,27.4c-2.9,0-5-2.3-5-6s2.2-6,5-6c2.9,0,5.1,2.3,5.1,6S71.2,27.4,68.3,27.4z"/>
		<path class="st3" d="M104.9,10.5c-2.9,0-4.7,1.9-5.6,3.7c-1.1-2.4-2.7-3.7-5.4-3.7c-3,0-4.7,1.9-5.6,3.7V11h-5v20.8h5.4V18.3
			c0.2-1.7,1.4-2.8,3-2.8c1.4,0,2.7,0.9,2.8,3v13.3h5.3V18.3c0.2-1.7,1.4-2.8,3-2.8c1.5,0,2.8,1,2.8,3.3v13h5.4V17.7
			C111,12.2,107.8,10.5,104.9,10.5z"/>
		<path class="st3" d="M11.6,15c2.5,0,4.4,1.8,4.9,4.8l4.6-4.6c-1.6-3.2-4.6-5-8.2-5c-3,0-5.1,1.4-6.5,3.3v-11H0.8v29.3H6v-3
			c1.1,1.6,3.5,3.5,6.7,3.5c3.4,0,6.6-1.8,8.4-5l-4.5-4.5c-0.5,2.9-2.3,4.7-4.9,4.7c-3.1,0-5.2-2.3-5.2-6.2C6.4,17.3,8.7,15,11.6,15
			z"/>
		<path class="st3" d="M43.4,22.2l-4.5,4.5c1.8,3.5,5.5,5.5,10,5.5c2.1,0,4.5-0.5,6.2-1.4v-4.7c-1.6,0.8-3.3,1.3-5.6,1.3
			C46,27.4,43.7,25.2,43.4,22.2z"/>
		<path class="st3" d="M49.5,15.4c1.9,0,3.8,0.6,5.6,1.5v-5.1c-1.7-0.7-4-1.3-6.2-1.3c-4.4,0-8.1,2.2-9.9,5.8l4.5,4.5
			C43.6,17.7,45.7,15.4,49.5,15.4z"/>
	</g>
</g>
</svg>
